<mxfile host="app.diagrams.net" modified="2024-03-25T17:43:32.784Z" agent="Mozilla/5.0 (Windows NT 10.0; Win64; x64) AppleWebKit/537.36 (KHTML, like Gecko) Chrome/123.0.0.0 Safari/537.36" etag="59SKI8Mk07kdNhXOjyuT" version="24.1.0" type="github">
  <diagram name="第 1 页" id="RaKtTq8fARtfwm8qMT8i">
    <mxGraphModel dx="819" dy="422" grid="1" gridSize="10" guides="1" tooltips="1" connect="1" arrows="1" fold="1" page="1" pageScale="1" pageWidth="827" pageHeight="1169" math="1" shadow="0">
      <root>
        <mxCell id="0" />
        <mxCell id="1" parent="0" />
        <mxCell id="keKTBXSfk6Zq2ahZcB2I-43" value="&lt;font style=&quot;font-size: 8px;&quot;&gt;256&lt;/font&gt;" style="rounded=0;whiteSpace=wrap;html=1;rotation=0;fillColor=#dae8fc;strokeColor=#6c8ebf;" vertex="1" parent="1">
          <mxGeometry x="90" y="200" width="20" height="90" as="geometry" />
        </mxCell>
        <mxCell id="keKTBXSfk6Zq2ahZcB2I-44" value="&lt;font style=&quot;font-size: 8px;&quot;&gt;256&lt;/font&gt;" style="rounded=0;whiteSpace=wrap;html=1;rotation=0;fillColor=#dae8fc;strokeColor=#6c8ebf;" vertex="1" parent="1">
          <mxGeometry x="130" y="200" width="20" height="90" as="geometry" />
        </mxCell>
        <mxCell id="keKTBXSfk6Zq2ahZcB2I-45" value="&lt;font style=&quot;font-size: 8px;&quot;&gt;256&lt;/font&gt;" style="rounded=0;whiteSpace=wrap;html=1;rotation=0;fillColor=#dae8fc;strokeColor=#6c8ebf;" vertex="1" parent="1">
          <mxGeometry x="170" y="200" width="20" height="90" as="geometry" />
        </mxCell>
        <mxCell id="keKTBXSfk6Zq2ahZcB2I-47" value="" style="endArrow=classic;html=1;rounded=0;" edge="1" parent="1">
          <mxGeometry width="50" height="50" relative="1" as="geometry">
            <mxPoint x="110" y="244.98000000000002" as="sourcePoint" />
            <mxPoint x="130" y="245" as="targetPoint" />
          </mxGeometry>
        </mxCell>
        <mxCell id="keKTBXSfk6Zq2ahZcB2I-48" value="" style="endArrow=classic;html=1;rounded=0;" edge="1" parent="1">
          <mxGeometry width="50" height="50" relative="1" as="geometry">
            <mxPoint x="150" y="244.86" as="sourcePoint" />
            <mxPoint x="170" y="244.88" as="targetPoint" />
          </mxGeometry>
        </mxCell>
        <mxCell id="keKTBXSfk6Zq2ahZcB2I-49" value="" style="endArrow=classic;html=1;rounded=0;" edge="1" parent="1">
          <mxGeometry width="50" height="50" relative="1" as="geometry">
            <mxPoint x="190" y="244.71" as="sourcePoint" />
            <mxPoint x="210" y="244.73" as="targetPoint" />
          </mxGeometry>
        </mxCell>
        <mxCell id="keKTBXSfk6Zq2ahZcB2I-50" value="" style="endArrow=classic;html=1;rounded=0;" edge="1" parent="1">
          <mxGeometry width="50" height="50" relative="1" as="geometry">
            <mxPoint x="230" y="244.83" as="sourcePoint" />
            <mxPoint x="250" y="244.85" as="targetPoint" />
          </mxGeometry>
        </mxCell>
        <mxCell id="keKTBXSfk6Zq2ahZcB2I-56" value="" style="endArrow=classic;html=1;rounded=0;" edge="1" parent="1">
          <mxGeometry width="50" height="50" relative="1" as="geometry">
            <mxPoint x="390" y="244.66000000000003" as="sourcePoint" />
            <mxPoint x="410" y="244.68" as="targetPoint" />
          </mxGeometry>
        </mxCell>
        <mxCell id="keKTBXSfk6Zq2ahZcB2I-57" value="" style="endArrow=classic;html=1;rounded=0;" edge="1" parent="1">
          <mxGeometry width="50" height="50" relative="1" as="geometry">
            <mxPoint x="70" y="244.83" as="sourcePoint" />
            <mxPoint x="90" y="244.85" as="targetPoint" />
          </mxGeometry>
        </mxCell>
        <mxCell id="keKTBXSfk6Zq2ahZcB2I-58" value="" style="endArrow=classic;html=1;rounded=0;fillColor=#f8cecc;strokeColor=#b85450;" edge="1" parent="1">
          <mxGeometry width="50" height="50" relative="1" as="geometry">
            <mxPoint x="350" y="244.83" as="sourcePoint" />
            <mxPoint x="370" y="244.85" as="targetPoint" />
          </mxGeometry>
        </mxCell>
        <mxCell id="keKTBXSfk6Zq2ahZcB2I-59" value="" style="endArrow=classic;html=1;rounded=0;" edge="1" parent="1">
          <mxGeometry width="50" height="50" relative="1" as="geometry">
            <mxPoint x="310" y="244.83" as="sourcePoint" />
            <mxPoint x="330" y="244.85" as="targetPoint" />
          </mxGeometry>
        </mxCell>
        <mxCell id="keKTBXSfk6Zq2ahZcB2I-60" value="" style="endArrow=classic;html=1;rounded=0;" edge="1" parent="1">
          <mxGeometry width="50" height="50" relative="1" as="geometry">
            <mxPoint x="270" y="244.83" as="sourcePoint" />
            <mxPoint x="290" y="244.85" as="targetPoint" />
          </mxGeometry>
        </mxCell>
        <mxCell id="keKTBXSfk6Zq2ahZcB2I-61" value="&lt;font style=&quot;font-size: 8px;&quot;&gt;256&lt;/font&gt;" style="rounded=0;whiteSpace=wrap;html=1;rotation=0;fillColor=#dae8fc;strokeColor=#6c8ebf;" vertex="1" parent="1">
          <mxGeometry x="210" y="200" width="20" height="90" as="geometry" />
        </mxCell>
        <mxCell id="keKTBXSfk6Zq2ahZcB2I-78" style="edgeStyle=orthogonalEdgeStyle;rounded=0;orthogonalLoop=1;jettySize=auto;html=1;exitX=1;exitY=0.5;exitDx=0;exitDy=0;dashed=1;dashPattern=1 1;" edge="1" parent="1" source="keKTBXSfk6Zq2ahZcB2I-68">
          <mxGeometry relative="1" as="geometry">
            <mxPoint x="460" y="244.8571428571429" as="targetPoint" />
          </mxGeometry>
        </mxCell>
        <mxCell id="keKTBXSfk6Zq2ahZcB2I-68" value="&lt;font style=&quot;font-size: 8px;&quot;&gt;128&lt;/font&gt;" style="rounded=0;whiteSpace=wrap;html=1;rotation=0;fillColor=#dae8fc;strokeColor=#6c8ebf;" vertex="1" parent="1">
          <mxGeometry x="411.5" y="220" width="20" height="50" as="geometry" />
        </mxCell>
        <mxCell id="keKTBXSfk6Zq2ahZcB2I-69" value="&lt;font style=&quot;font-size: 8px;&quot;&gt;256&lt;/font&gt;" style="rounded=0;whiteSpace=wrap;html=1;rotation=0;fillColor=#dae8fc;strokeColor=#6c8ebf;" vertex="1" parent="1">
          <mxGeometry x="50" y="200" width="20" height="90" as="geometry" />
        </mxCell>
        <mxCell id="keKTBXSfk6Zq2ahZcB2I-70" value="&lt;font style=&quot;font-size: 8px;&quot;&gt;256&lt;/font&gt;" style="rounded=0;whiteSpace=wrap;html=1;rotation=0;fillColor=#dae8fc;strokeColor=#6c8ebf;" vertex="1" parent="1">
          <mxGeometry x="370" y="200" width="20" height="90" as="geometry" />
        </mxCell>
        <mxCell id="keKTBXSfk6Zq2ahZcB2I-71" value="&lt;font style=&quot;font-size: 8px;&quot;&gt;256&lt;/font&gt;" style="rounded=0;whiteSpace=wrap;html=1;rotation=0;fillColor=#dae8fc;strokeColor=#6c8ebf;" vertex="1" parent="1">
          <mxGeometry x="330" y="200" width="20" height="90" as="geometry" />
        </mxCell>
        <mxCell id="keKTBXSfk6Zq2ahZcB2I-72" value="&lt;font style=&quot;font-size: 8px;&quot;&gt;256&lt;/font&gt;" style="rounded=0;whiteSpace=wrap;html=1;rotation=0;fillColor=#dae8fc;strokeColor=#6c8ebf;" vertex="1" parent="1">
          <mxGeometry x="290" y="200" width="20" height="90" as="geometry" />
        </mxCell>
        <mxCell id="keKTBXSfk6Zq2ahZcB2I-73" value="&lt;font style=&quot;font-size: 8px;&quot;&gt;256&lt;/font&gt;" style="rounded=0;whiteSpace=wrap;html=1;rotation=0;fillColor=#dae8fc;strokeColor=#6c8ebf;" vertex="1" parent="1">
          <mxGeometry x="250" y="200" width="20" height="90" as="geometry" />
        </mxCell>
        <mxCell id="keKTBXSfk6Zq2ahZcB2I-76" value="$$\sigma$$" style="rounded=0;whiteSpace=wrap;html=1;fillColor=#f8cecc;strokeColor=#b85450;" vertex="1" parent="1">
          <mxGeometry x="370" y="176" width="20" height="20" as="geometry" />
        </mxCell>
        <mxCell id="keKTBXSfk6Zq2ahZcB2I-79" value="$$\mathbf{c}$$" style="rounded=0;whiteSpace=wrap;html=1;fillColor=#f8cecc;strokeColor=#b85450;" vertex="1" parent="1">
          <mxGeometry x="460" y="235" width="20" height="20" as="geometry" />
        </mxCell>
        <mxCell id="keKTBXSfk6Zq2ahZcB2I-80" value="$$\gamma(\mathbf{d})$$&lt;div&gt;24&lt;/div&gt;" style="rounded=1;whiteSpace=wrap;html=1;fillColor=#d5e8d4;strokeColor=#82b366;" vertex="1" parent="1">
          <mxGeometry x="365" y="310" width="30" height="70" as="geometry" />
        </mxCell>
        <mxCell id="keKTBXSfk6Zq2ahZcB2I-82" value="&lt;font style=&quot;font-size: 14px;&quot;&gt;&lt;b&gt;+&lt;/b&gt;&lt;/font&gt;" style="text;html=1;align=center;verticalAlign=middle;resizable=0;points=[];autosize=1;strokeColor=none;fillColor=none;" vertex="1" parent="1">
          <mxGeometry x="365" y="286" width="30" height="30" as="geometry" />
        </mxCell>
        <mxCell id="keKTBXSfk6Zq2ahZcB2I-83" value="$$\gamma(\mathbf{x})$$&lt;div&gt;60&lt;/div&gt;" style="rounded=1;whiteSpace=wrap;html=1;fillColor=#d5e8d4;strokeColor=#82b366;" vertex="1" parent="1">
          <mxGeometry x="205" y="106" width="30" height="70" as="geometry" />
        </mxCell>
        <mxCell id="keKTBXSfk6Zq2ahZcB2I-84" value="&lt;font style=&quot;font-size: 14px;&quot;&gt;&lt;b&gt;+&lt;/b&gt;&lt;/font&gt;" style="text;html=1;align=center;verticalAlign=middle;resizable=0;points=[];autosize=1;strokeColor=none;fillColor=none;" vertex="1" parent="1">
          <mxGeometry x="205" y="176" width="30" height="30" as="geometry" />
        </mxCell>
        <mxCell id="keKTBXSfk6Zq2ahZcB2I-86" style="edgeStyle=orthogonalEdgeStyle;rounded=0;orthogonalLoop=1;jettySize=auto;html=1;exitX=1;exitY=0.5;exitDx=0;exitDy=0;entryX=0;entryY=0.5;entryDx=0;entryDy=0;" edge="1" parent="1" source="keKTBXSfk6Zq2ahZcB2I-85" target="keKTBXSfk6Zq2ahZcB2I-69">
          <mxGeometry relative="1" as="geometry" />
        </mxCell>
        <mxCell id="keKTBXSfk6Zq2ahZcB2I-85" value="$$\gamma(\mathbf{x})$$&lt;div&gt;60&lt;/div&gt;" style="rounded=1;whiteSpace=wrap;html=1;fillColor=#d5e8d4;strokeColor=#82b366;" vertex="1" parent="1">
          <mxGeometry y="210" width="30" height="70" as="geometry" />
        </mxCell>
      </root>
    </mxGraphModel>
  </diagram>
</mxfile>
